HIERARCHY
ROOT Hips
{
	OFFSET 0.000000 0.000000 0.000000 
	CHANNELS 6 Xposition Yposition Zposition Zrotation Yrotation Xrotation
	JOINT LeftUpLeg
	{
		OFFSET 1.363060 -1.794630 0.839290 
		CHANNELS 3 Zrotation Yrotation Xrotation
		JOINT LeftLeg
		{
			OFFSET 2.448110 -6.726130 0.000000 
			CHANNELS 3 Zrotation Yrotation Xrotation
			JOINT LeftFoot
			{
				OFFSET 2.562200 -7.039590 0.000000 
				CHANNELS 3 Zrotation Yrotation Xrotation
				JOINT LeftToeBase
				{
					OFFSET 0.157640 -0.433110 2.322550 
					CHANNELS 3 Zrotation Yrotation Xrotation
					End Site
					{
						OFFSET 0.000000 0.000000 0.000000 
					}
				}
			}
		}
	}
	JOINT RightUpLeg
	{
		OFFSET -1.305520 -1.794630 0.839290 
		CHANNELS 3 Zrotation Yrotation Xrotation
		JOINT RightLeg
		{
			OFFSET -2.542530 -6.985550 0.000000 
			CHANNELS 3 Zrotation Yrotation Xrotation
			JOINT RightFoot
			{
				OFFSET -2.568260 -7.056230 0.000000 
				CHANNELS 3 Zrotation Yrotation Xrotation
				JOINT RightToeBase
				{
					OFFSET -0.164730 -0.452590 2.363150 
					CHANNELS 3 Zrotation Yrotation Xrotation
					End Site
					{
						OFFSET 0.000000 0.000000 0.000000 
					}
				}
			}
		}
	}
	JOINT Spine
	{
		OFFSET 0.028270 2.035590 -0.193380 
		CHANNELS 3 Zrotation Yrotation Xrotation
		JOINT Spine1
		{
			OFFSET 0.056720 2.048850 -0.042750 
			CHANNELS 3 Zrotation Yrotation Xrotation
			JOINT Neck1
			{
				OFFSET -0.054170 1.746240 0.172020 
				CHANNELS 3 Zrotation Yrotation Xrotation
				JOINT Head
				{
					OFFSET 0.104070 1.761360 -0.123970 
					CHANNELS 3 Zrotation Yrotation Xrotation
					End Site
					{
						OFFSET 0.000000 0.000000 0.000000 
					}
				}
			}
			JOINT LeftArm
			{
				OFFSET 3.362410 1.200890 -0.311210 
				CHANNELS 3 Zrotation Yrotation Xrotation
				JOINT LeftForeArm
				{
					OFFSET 4.983000 -0.000000 -0.000000 
					CHANNELS 3 Zrotation Yrotation Xrotation
					JOINT LeftHand
					{
						OFFSET 3.483560 -0.000000 -0.000000 
						CHANNELS 3 Zrotation Yrotation Xrotation
						JOINT LeftHandIndex1
						{
							OFFSET 0.715260 -0.000000 -0.000000 
							CHANNELS 3 Zrotation Yrotation Xrotation
							End Site
							{
								OFFSET 0.000000 0.000000 0.000000 
							}
						}
					}
				}
			}
			JOINT RightArm
			{
				OFFSET -3.136600 1.374050 -0.404650 
				CHANNELS 3 Zrotation Yrotation Xrotation
				JOINT RightForeArm
				{
					OFFSET -5.241900 -0.000000 -0.000000 
					CHANNELS 3 Zrotation Yrotation Xrotation
					JOINT RightHand
					{
						OFFSET -3.444170 -0.000000 -0.000000 
						CHANNELS 3 Zrotation Yrotation Xrotation
						JOINT RightHandIndex1
						{
							OFFSET -0.622530 -0.000000 -0.000000 
							CHANNELS 3 Zrotation Yrotation Xrotation
							End Site
							{
								OFFSET 0.000000 0.000000 0.000000 
							}
						}
					}
				}
			}
		}
	}
}
MOTION
Frames: 18
Frame Time: 0.041667
-13.060192 17.592682 10.404298 -2.734082 -4.100512 2.978654 -12.001389 2.034283 -10.419050 1.480107 10.347109 27.599963 0.939604 -4.602273 -13.321463 0.002000 -0.289300 -0.794800 20.485154 1.084077 -9.577490 -2.429988 -11.534180 31.140122 -1.196996 3.510523 -14.118398 -0.604900 -4.978200 13.846500 2.463527 -2.105995 -3.179125 5.298218 -1.055573 2.520908 3.026432 -2.659564 23.371766 2.496300 -2.263000 15.002200 -88.238620 3.873263 31.606086 16.020740 -27.275060 -3.822484 0.217887 0.641096 2.266677 -7.125000 0.000000 0.000000 82.398092 -0.685745 25.691601 -14.534581 23.021665 -3.226918 0.251238 -0.061549 -5.889504 7.125000 0.000000 0.000000 
-13.071865 17.592480 10.403795 -2.671131 -4.179246 2.972493 -12.039114 2.051133 -10.436970 1.497791 10.388079 27.724898 0.930526 -4.411961 -13.392303 0.016800 -0.837000 -2.300300 20.496861 1.199604 -9.538006 -2.418895 -11.521541 31.099137 -1.162734 3.237907 -14.146045 -0.556500 -4.778600 13.278200 2.471750 -2.073326 -3.175493 5.352281 -1.040331 2.508064 2.987910 -2.171688 23.584057 2.490700 -2.053900 15.091200 -88.403407 3.930830 31.009076 15.864358 -27.091874 -3.767284 0.218180 0.658070 2.456359 -7.125000 0.000000 0.000000 82.467319 -0.742792 25.335527 -14.689802 23.235118 -3.291802 0.216243 -0.035847 -4.753066 7.125000 0.000000 0.000000 
-13.082834 17.598015 10.403593 -2.736175 -4.239663 3.010010 -11.941490 2.179700 -10.399504 1.505568 10.403492 27.771654 0.922240 -4.276511 -13.414121 0.050300 -1.446800 -3.979100 20.645925 1.461378 -9.461107 -2.407998 -11.508249 31.052829 -1.146568 3.130555 -14.129971 -0.634000 -5.094500 14.178200 2.470976 -1.983451 -3.171434 5.306446 -0.992904 2.499948 3.104416 -1.864488 23.698442 2.600800 -1.930100 15.094400 -88.505747 4.048295 30.688745 15.686996 -26.866980 -3.696388 0.212136 0.665610 2.429337 -7.125000 0.000000 0.000000 82.541275 -0.842265 25.655001 -14.750206 23.320915 -3.316130 0.215444 -0.027463 -5.680786 7.125000 0.000000 0.000000 
-13.086960 17.603751 10.407015 -2.378763 -4.247544 3.049003 -12.337224 2.127892 -10.368874 1.503011 10.415857 27.795341 0.921851 -4.184399 -13.528482 0.062500 -1.612600 -4.436300 20.224847 1.361334 -9.529282 -2.404728 -11.493813 31.013967 -1.174836 3.374740 -14.060444 -0.679900 -5.272200 14.686600 2.412581 -1.920574 -3.156627 5.285358 -0.965102 2.556732 3.131962 -1.539485 23.751880 2.629600 -1.783000 15.110800 -88.630597 3.976612 30.135587 15.425095 -26.527181 -3.588651 0.191987 0.669466 2.604742 -7.125000 0.000000 0.000000 82.641220 -0.634536 25.402293 -14.568925 23.079598 -3.244915 0.208799 -0.058528 -6.584710 7.125000 0.000000 0.000000 
-13.089979 17.604456 10.417783 -2.159299 -4.240001 3.032475 -12.578772 2.155480 -10.417223 1.506045 10.427184 27.825175 0.931178 -4.212257 -13.631847 0.073200 -1.744900 -4.801200 19.922822 1.081658 -9.543692 -2.400568 -11.480455 30.967268 -1.211618 3.709975 -13.955483 -0.689400 -5.308000 14.789100 2.357570 -1.862701 -3.098063 5.129452 -0.939281 2.755123 2.949855 -1.182597 23.833407 2.487000 -1.603000 15.186200 -88.660550 3.695209 29.533258 15.081066 -26.084601 -3.456908 0.200567 0.666032 3.042180 -7.125000 0.000000 0.000000 82.781416 -0.303739 24.979598 -14.369566 22.812674 -3.167704 0.196450 -0.084924 -6.815237 7.125000 0.000000 0.000000 
-13.096722 17.600028 10.436198 -2.304163 -4.163472 3.015848 -12.400502 2.290764 -10.412729 1.521161 10.438162 27.867235 0.955659 -4.478802 -13.667941 0.052800 -1.482400 -4.077200 20.035957 0.781752 -9.498989 -2.397394 -11.474189 30.930427 -1.249478 4.075344 -13.837234 -0.761000 -5.571100 15.544800 2.331375 -1.798980 -3.044975 4.831484 -0.903219 2.956636 2.827856 -0.931365 23.971981 2.391000 -1.475900 15.264600 -88.560075 3.606342 29.263940 14.789321 -25.704658 -3.348328 0.226251 0.656426 3.263279 -7.125000 0.000000 0.000000 82.925246 -0.516108 26.237237 -14.562490 23.067586 -3.239350 0.241020 -0.077602 -8.750161 7.125000 0.000000 0.000000 
-13.110307 17.591172 10.450589 -2.603652 -4.038686 3.068530 -12.019867 2.315387 -10.458764 1.546851 10.462662 27.964774 0.943470 -4.602219 -13.384811 0.045700 -1.379500 -3.793700 20.395222 0.587607 -9.516765 -2.389662 -11.463259 30.883671 -1.264429 4.217023 -13.806585 -0.772000 -5.610100 15.657300 2.357183 -1.795106 -3.015144 4.644166 -0.896581 3.124600 2.739007 -0.768880 24.191695 2.323100 -1.398600 15.443300 -88.508083 3.673992 29.023127 14.599140 -25.459624 -3.281117 0.249873 0.651436 3.053806 -7.125000 0.000000 0.000000 82.941635 -0.697398 27.518668 -14.749859 23.313626 -3.309931 0.274245 -0.061953 -9.898518 7.125000 0.000000 0.000000 
-13.130635 17.585235 10.455218 -2.961915 -3.994426 3.119206 -11.528123 2.067830 -10.484556 1.577539 10.509945 28.130811 0.969014 -4.613253 -13.637437 0.021400 -0.943900 -2.594500 20.916052 0.761312 -9.478468 -2.377816 -11.453769 30.844850 -1.232944 3.953733 -13.852476 -0.704500 -5.364800 14.952100 2.421874 -1.762857 -2.994288 4.639036 -0.878188 3.215803 2.580505 -0.688549 24.426523 2.218000 -1.372600 15.691300 -88.534598 3.691079 28.752679 14.441168 -25.256758 -3.225877 0.259946 0.656709 2.687645 -7.125000 0.000000 0.000000 82.923231 -0.473730 26.698086 -14.591573 23.107635 -3.249559 0.237192 -0.068609 -6.840862 7.125000 0.000000 0.000000 
-13.149856 17.582316 10.456023 -3.227082 -3.998989 3.063821 -11.151804 1.860360 -10.378628 1.618360 10.579024 28.355183 0.980801 -4.590541 -13.776419 0.007500 -0.559100 -1.536400 21.330481 0.911293 -9.355389 -2.373027 -11.455097 30.837935 -1.212068 3.773159 -13.899944 -0.640100 -5.118500 14.246900 2.475106 -1.661750 -2.988284 4.702439 -0.825594 3.107785 2.622983 -0.525327 24.498211 2.294100 -1.331000 15.719100 -88.657340 3.743599 28.582191 14.286547 -25.054183 -3.170074 0.255287 0.675342 1.962426 -7.125000 0.000000 0.000000 82.970986 -0.698180 27.395542 -14.737894 23.288851 -3.304063 0.268738 -0.063531 -8.698152 7.125000 0.000000 0.000000 
-13.170385 17.574165 10.452400 -3.394677 -3.943399 3.017978 -10.893749 2.101098 -10.522924 1.667186 10.657419 28.613139 0.984294 -4.480148 -13.899872 0.055300 -1.518100 -4.175500 21.650211 1.065864 -9.238251 -2.368107 -11.453080 30.826234 -1.190513 3.604935 -13.917568 -0.574200 -4.852400 13.488200 2.525212 -1.560224 -2.983584 4.802485 -0.769854 2.951810 2.593116 -0.247384 24.309380 2.297700 -1.211900 15.438900 -88.804527 3.815774 28.529365 14.123251 -24.851440 -3.114028 0.257841 0.693341 1.182157 -7.125000 0.000000 0.000000 82.972285 -0.704878 26.362608 -14.736690 23.296362 -3.308580 0.234717 -0.060022 -6.309871 7.125000 0.000000 0.000000 
-13.190712 17.563800 10.447570 -3.385467 -3.858272 3.017039 -10.843241 2.268739 -10.675826 1.707000 10.732471 28.853916 0.968628 -4.182036 -13.991267 0.182500 -2.751700 -7.588200 21.761105 1.267365 -9.161490 -2.359233 -11.442357 30.794661 -1.141112 3.346747 -13.724633 -0.515200 -4.600700 12.773100 2.545652 -1.496553 -2.972816 4.895442 -0.735458 2.884013 2.371946 -0.077082 24.058315 2.119100 -1.107300 15.129800 -88.856854 3.825297 28.223607 13.917807 -24.596275 -3.044361 0.264883 0.701268 1.232014 -7.125000 0.000000 0.000000 83.025354 -0.651375 25.822726 -14.718803 23.272031 -3.303616 0.217430 -0.063270 -4.981414 7.125000 0.000000 0.000000 
-13.204298 17.560781 10.452098 -3.410691 -3.750087 2.964058 -10.761309 2.071794 -10.592402 1.744322 10.797622 29.062021 0.974212 -4.202140 -14.042129 0.172300 -2.674100 -7.372700 21.831346 1.148749 -9.058312 -2.348883 -11.424433 30.724857 -1.205300 3.644759 -14.042750 -0.602500 -4.968900 13.819800 2.549248 -1.494316 -3.003423 4.888075 -0.729978 2.683321 2.439281 0.052994 23.975459 2.166100 -1.043000 14.944500 -88.881429 3.927344 27.547865 13.699306 -24.304263 -2.968541 0.268452 0.706484 1.768019 -7.125000 0.000000 0.000000 83.115676 -0.989150 26.211775 -14.860799 23.461968 -3.360514 0.229800 -0.060400 -5.415303 7.125000 0.000000 0.000000 
-13.214361 17.560077 10.465281 -3.596707 -3.599310 2.908530 -10.514924 1.799949 -10.584793 1.786119 10.857143 29.269170 0.986341 -4.344680 -14.038657 0.124700 -2.276200 -6.269700 22.052790 0.843784 -8.965351 -2.329527 -11.392202 30.605145 -1.250779 3.908156 -14.185985 -0.606700 -4.985900 13.868200 2.544569 -1.480110 -3.052229 4.733751 -0.713803 2.419866 2.677036 0.157823 23.890919 2.340700 -0.995100 14.754300 -88.856851 4.059299 26.954725 13.489744 -24.004342 -2.891214 0.261507 0.709765 2.301827 -7.125000 0.000000 0.000000 83.270359 -1.359388 25.921228 -14.912238 23.545364 -3.384950 0.220394 -0.055737 -4.444337 7.125000 0.000000 0.000000 
-13.220298 17.559372 10.481483 -3.689337 -3.425291 2.910060 -10.383958 1.473267 -10.682829 1.831614 10.928077 29.513170 0.991057 -4.403899 -14.032894 0.093900 -1.975900 -5.439000 22.127795 0.386472 -8.992094 -2.303714 -11.345590 30.443760 -1.289103 4.202650 -14.189184 -0.578600 -4.870700 13.540100 2.515685 -1.447736 -3.014479 4.503304 -0.694363 2.553798 2.726357 0.163252 23.933841 2.381800 -0.992900 14.815000 -88.803066 3.963586 26.711446 13.354807 -23.810942 -2.842105 0.254402 0.719801 2.486918 -7.125000 0.000000 0.000000 83.399402 -1.347079 25.577631 -14.797673 23.407194 -3.341354 0.211767 -0.062596 -3.935653 7.125000 0.000000 0.000000 
-13.227846 17.560479 10.494867 -3.719540 -3.310983 2.932626 -10.341364 1.401765 -10.774101 1.886924 11.021405 29.818280 0.980340 -4.296496 -14.014767 0.149100 -2.488500 -6.857900 22.134186 -0.062832 -9.046570 -2.283997 -11.306673 30.310518 -1.318628 4.533775 -14.032925 -0.538100 -4.700000 13.054900 2.508698 -1.436189 -2.916616 4.373022 -0.690370 2.934355 2.689392 0.225261 24.129430 2.384800 -0.984700 15.096100 -88.844072 3.706050 26.454270 13.206817 -23.612969 -2.793261 0.272314 0.718854 2.517670 -7.125000 0.000000 0.000000 83.378936 -0.980763 25.707360 -14.591487 23.132675 -3.256099 0.212830 -0.064347 -4.296303 7.125000 0.000000 0.000000 
-13.244752 17.556454 10.502817 -3.859627 -3.243919 2.939328 -10.164165 1.447523 -10.885627 1.969828 11.155416 30.258786 0.970598 -4.128343 -14.058750 0.250700 -3.221600 -8.896300 22.358093 -0.165014 -8.974632 -2.265318 -11.277037 30.208235 -1.306982 4.550970 -13.871912 -0.534900 -4.686200 13.015700 2.530403 -1.382222 -2.859349 4.351072 -0.662418 3.092607 2.646597 0.314309 24.173958 2.364400 -0.948100 15.167600 -88.832327 3.552137 26.237626 13.007035 -23.339782 -2.723624 0.294988 0.696808 2.543634 -7.125000 0.000000 0.000000 83.438108 -0.696221 25.417334 -14.378067 22.839662 -3.168600 0.208615 -0.064263 -3.918407 7.125000 0.000000 0.000000 
-13.265985 17.539749 10.508855 -4.091768 -3.138993 2.886123 -9.865139 1.361511 -11.003904 2.086298 11.342625 30.880265 0.980603 -3.873881 -14.407217 0.394500 -4.033100 -11.169700 22.744545 -0.181504 -8.787481 -2.237047 -11.237758 30.069246 -1.283477 4.363657 -13.887337 -0.577300 -4.865600 13.525600 2.571945 -1.331436 -2.859875 4.337748 -0.633346 3.030815 2.331972 0.367015 24.386463 2.140700 -0.929700 15.330000 -88.768357 3.714630 26.249665 13.014427 -23.351365 -2.727466 0.295232 0.700733 2.339789 -7.125000 0.000000 0.000000 83.533548 -0.656360 25.160034 -14.153553 22.522055 -3.077016 0.212243 -0.077936 -3.607638 7.125000 0.000000 0.000000 
-13.289433 17.521836 10.510868 -4.454615 -2.971093 2.867962 -9.430350 1.385524 -11.198588 2.214810 11.550669 31.581792 0.964919 -3.148680 -14.913717 0.963000 -6.248400 -17.506800 23.297365 -0.120616 -8.612838 -2.203548 -11.189569 29.902404 -1.267578 4.152843 -14.040331 -0.611200 -5.003900 13.919600 2.645820 -1.330168 -2.904121 4.301257 -0.626953 2.877268 1.797911 0.459235 24.835146 1.760600 -0.904100 15.755500 -88.857229 4.049792 25.875683 13.151246 -23.540476 -2.780325 0.286719 0.720632 2.465309 -7.125000 0.000000 0.000000 83.501443 -0.663356 25.340776 -13.909299 22.171302 -2.978885 0.215025 -0.106550 -3.791243 7.125000 0.000000 0.000000 
